<svg width="193" height="28" viewBox="0 0 193 28" fill="none" xmlns="http://www.w3.org/2000/svg">
<path d="M8.208 27V6.552H0.144V1.8H22.104V6.552H14.04V27H8.208ZM32.4892 27.288C30.2812 27.288 28.3372 26.856 26.6572 25.992C25.0012 25.128 23.7172 23.952 22.8052 22.464C21.8932 20.952 21.4372 19.236 21.4372 17.316C21.4372 15.372 21.8812 13.656 22.7692 12.168C23.6812 10.656 24.9172 9.48 26.4772 8.64C28.0372 7.776 29.8012 7.344 31.7692 7.344C33.6652 7.344 35.3692 7.752 36.8812 8.568C38.4172 9.36 39.6292 10.512 40.5172 12.024C41.4052 13.512 41.8492 15.3 41.8492 17.388C41.8492 17.604 41.8372 17.856 41.8132 18.144C41.7892 18.408 41.7652 18.66 41.7412 18.9H26.0092V15.624H38.7892L36.6292 16.596C36.6292 15.588 36.4252 14.712 36.0172 13.968C35.6092 13.224 35.0452 12.648 34.3252 12.24C33.6052 11.808 32.7652 11.592 31.8052 11.592C30.8452 11.592 29.9932 11.808 29.2492 12.24C28.5292 12.648 27.9652 13.236 27.5572 14.004C27.1492 14.748 26.9452 15.636 26.9452 16.668V17.532C26.9452 18.588 27.1732 19.524 27.6292 20.34C28.1092 21.132 28.7692 21.744 29.6092 22.176C30.4732 22.584 31.4812 22.788 32.6332 22.788C33.6652 22.788 34.5652 22.632 35.3332 22.32C36.1252 22.008 36.8452 21.54 37.4932 20.916L40.4812 24.156C39.5932 25.164 38.4772 25.944 37.1332 26.496C35.7892 27.024 34.2412 27.288 32.4892 27.288ZM54.9481 27.288C52.8601 27.288 51.0001 26.868 49.3681 26.028C47.7361 25.164 46.4521 23.976 45.5161 22.464C44.6041 20.952 44.1481 19.236 44.1481 17.316C44.1481 15.372 44.6041 13.656 45.5161 12.168C46.4521 10.656 47.7361 9.48 49.3681 8.64C51.0001 7.776 52.8601 7.344 54.9481 7.344C56.9881 7.344 58.7641 7.776 60.2761 8.64C61.7881 9.48 62.9041 10.692 63.6241 12.276L59.2681 14.616C58.7641 13.704 58.1281 13.032 57.3601 12.6C56.6161 12.168 55.8001 11.952 54.9121 11.952C53.9521 11.952 53.0881 12.168 52.3201 12.6C51.5521 13.032 50.9401 13.644 50.4841 14.436C50.0521 15.228 49.8361 16.188 49.8361 17.316C49.8361 18.444 50.0521 19.404 50.4841 20.196C50.9401 20.988 51.5521 21.6 52.3201 22.032C53.0881 22.464 53.9521 22.68 54.9121 22.68C55.8001 22.68 56.6161 22.476 57.3601 22.068C58.1281 21.636 58.7641 20.952 59.2681 20.016L63.6241 22.392C62.9041 23.952 61.7881 25.164 60.2761 26.028C58.7641 26.868 56.9881 27.288 54.9481 27.288ZM78.5242 7.344C80.0602 7.344 81.4282 7.656 82.6282 8.28C83.8522 8.88 84.8122 9.816 85.5082 11.088C86.2042 12.336 86.5522 13.944 86.5522 15.912V27H80.9362V16.776C80.9362 15.216 80.5882 14.064 79.8922 13.32C79.2202 12.576 78.2602 12.204 77.0122 12.204C76.1242 12.204 75.3202 12.396 74.6002 12.78C73.9042 13.14 73.3522 13.704 72.9442 14.472C72.5602 15.24 72.3682 16.224 72.3682 17.424V27H66.7522V0.287998H72.3682V12.996L71.1082 11.376C71.8042 10.08 72.8002 9.084 74.0962 8.388C75.3922 7.692 76.8682 7.344 78.5242 7.344Z" fill="#ED145B"/>
<path d="M92.0388 27V1.8H97.8708V22.248H110.507V27H92.0388ZM122.876 27.288C120.668 27.288 118.724 26.856 117.044 25.992C115.388 25.128 114.104 23.952 113.192 22.464C112.28 20.952 111.824 19.236 111.824 17.316C111.824 15.372 112.268 13.656 113.156 12.168C114.068 10.656 115.304 9.48 116.864 8.64C118.424 7.776 120.188 7.344 122.156 7.344C124.052 7.344 125.756 7.752 127.268 8.568C128.804 9.36 130.016 10.512 130.904 12.024C131.792 13.512 132.236 15.3 132.236 17.388C132.236 17.604 132.224 17.856 132.2 18.144C132.176 18.408 132.152 18.66 132.128 18.9H116.396V15.624H129.176L127.016 16.596C127.016 15.588 126.812 14.712 126.404 13.968C125.996 13.224 125.432 12.648 124.712 12.24C123.992 11.808 123.152 11.592 122.192 11.592C121.232 11.592 120.38 11.808 119.636 12.24C118.916 12.648 118.352 13.236 117.944 14.004C117.536 14.748 117.332 15.636 117.332 16.668V17.532C117.332 18.588 117.56 19.524 118.016 20.34C118.496 21.132 119.156 21.744 119.996 22.176C120.86 22.584 121.868 22.788 123.02 22.788C124.052 22.788 124.952 22.632 125.72 22.32C126.512 22.008 127.232 21.54 127.88 20.916L130.868 24.156C129.98 25.164 128.864 25.944 127.52 26.496C126.176 27.024 124.628 27.288 122.876 27.288ZM147.327 27V23.22L146.967 22.392V15.624C146.967 14.424 146.595 13.488 145.851 12.816C145.131 12.144 144.015 11.808 142.503 11.808C141.471 11.808 140.451 11.976 139.443 12.312C138.459 12.624 137.619 13.056 136.923 13.608L134.907 9.684C135.963 8.94 137.235 8.364 138.723 7.956C140.211 7.548 141.723 7.344 143.259 7.344C146.211 7.344 148.503 8.04 150.135 9.432C151.767 10.824 152.583 12.996 152.583 15.948V27H147.327ZM141.423 27.288C139.911 27.288 138.615 27.036 137.535 26.532C136.455 26.004 135.627 25.296 135.051 24.408C134.475 23.52 134.187 22.524 134.187 21.42C134.187 20.268 134.463 19.26 135.015 18.396C135.591 17.532 136.491 16.86 137.715 16.38C138.939 15.876 140.535 15.624 142.503 15.624H147.651V18.9H143.115C141.795 18.9 140.883 19.116 140.379 19.548C139.899 19.98 139.659 20.52 139.659 21.168C139.659 21.888 139.935 22.464 140.487 22.896C141.063 23.304 141.843 23.508 142.827 23.508C143.763 23.508 144.603 23.292 145.347 22.86C146.091 22.404 146.631 21.744 146.967 20.88L147.831 23.472C147.423 24.72 146.679 25.668 145.599 26.316C144.519 26.964 143.127 27.288 141.423 27.288ZM157.666 27V7.632H163.03V13.104L162.274 11.52C162.85 10.152 163.774 9.12 165.046 8.424C166.318 7.704 167.866 7.344 169.69 7.344V12.528C169.45 12.504 169.234 12.492 169.042 12.492C168.85 12.468 168.646 12.456 168.43 12.456C166.894 12.456 165.646 12.9 164.686 13.788C163.75 14.652 163.282 16.008 163.282 17.856V27H157.666ZM184.837 7.344C186.373 7.344 187.741 7.656 188.941 8.28C190.165 8.88 191.125 9.816 191.821 11.088C192.517 12.336 192.865 13.944 192.865 15.912V27H187.249V16.776C187.249 15.216 186.901 14.064 186.205 13.32C185.533 12.576 184.573 12.204 183.325 12.204C182.437 12.204 181.633 12.396 180.913 12.78C180.217 13.14 179.665 13.704 179.257 14.472C178.873 15.24 178.681 16.224 178.681 17.424V27H173.065V7.632H178.429V12.996L177.421 11.376C178.117 10.08 179.113 9.084 180.409 8.388C181.705 7.692 183.181 7.344 184.837 7.344Z" fill="white"/>
</svg>
