<svg width="258" height="37" viewBox="0 0 258 37" fill="none" xmlns="http://www.w3.org/2000/svg">
<path d="M10.944 36V8.736H0.192V2.4H29.472V8.736H18.72V36H10.944ZM43.3189 36.384C40.3749 36.384 37.7829 35.808 35.5429 34.656C33.3349 33.504 31.6229 31.936 30.4069 29.952C29.1909 27.936 28.5829 25.648 28.5829 23.088C28.5829 20.496 29.1749 18.208 30.3589 16.224C31.5749 14.208 33.2229 12.64 35.3029 11.52C37.3829 10.368 39.7349 9.792 42.3589 9.792C44.8869 9.792 47.1589 10.336 49.1749 11.424C51.2229 12.48 52.8389 14.016 54.0229 16.032C55.2069 18.016 55.7989 20.4 55.7989 23.184C55.7989 23.472 55.7829 23.808 55.7509 24.192C55.7189 24.544 55.6869 24.88 55.6549 25.2H34.6789V20.832H51.7189L48.8389 22.128C48.8389 20.784 48.5669 19.616 48.0229 18.624C47.4789 17.632 46.7269 16.864 45.7669 16.32C44.8069 15.744 43.6869 15.456 42.4069 15.456C41.1269 15.456 39.9909 15.744 38.9989 16.32C38.0389 16.864 37.2869 17.648 36.7429 18.672C36.1989 19.664 35.9269 20.848 35.9269 22.224V23.376C35.9269 24.784 36.2309 26.032 36.8389 27.12C37.4789 28.176 38.3589 28.992 39.4789 29.568C40.6309 30.112 41.9749 30.384 43.5109 30.384C44.8869 30.384 46.0869 30.176 47.1109 29.76C48.1669 29.344 49.1269 28.72 49.9909 27.888L53.9749 32.208C52.7909 33.552 51.3029 34.592 49.5109 35.328C47.7189 36.032 45.6549 36.384 43.3189 36.384ZM73.2641 36.384C70.4801 36.384 68.0001 35.824 65.8241 34.704C63.6481 33.552 61.9361 31.968 60.6881 29.952C59.4721 27.936 58.8641 25.648 58.8641 23.088C58.8641 20.496 59.4721 18.208 60.6881 16.224C61.9361 14.208 63.6481 12.64 65.8241 11.52C68.0001 10.368 70.4801 9.792 73.2641 9.792C75.9841 9.792 78.3521 10.368 80.3681 11.52C82.3841 12.64 83.8721 14.256 84.8321 16.368L79.0241 19.488C78.3521 18.272 77.5041 17.376 76.4801 16.8C75.4881 16.224 74.4001 15.936 73.2161 15.936C71.9361 15.936 70.7841 16.224 69.7601 16.8C68.7361 17.376 67.9201 18.192 67.3121 19.248C66.7361 20.304 66.4481 21.584 66.4481 23.088C66.4481 24.592 66.7361 25.872 67.3121 26.928C67.9201 27.984 68.7361 28.8 69.7601 29.376C70.7841 29.952 71.9361 30.24 73.2161 30.24C74.4001 30.24 75.4881 29.968 76.4801 29.424C77.5041 28.848 78.3521 27.936 79.0241 26.688L84.8321 29.856C83.8721 31.936 82.3841 33.552 80.3681 34.704C78.3521 35.824 75.9841 36.384 73.2641 36.384ZM104.699 9.792C106.747 9.792 108.571 10.208 110.171 11.04C111.803 11.84 113.083 13.088 114.011 14.784C114.939 16.448 115.403 18.592 115.403 21.216V36H107.915V22.368C107.915 20.288 107.451 18.752 106.523 17.76C105.627 16.768 104.347 16.272 102.683 16.272C101.499 16.272 100.427 16.528 99.4669 17.04C98.5389 17.52 97.8029 18.272 97.2589 19.296C96.7469 20.32 96.4909 21.632 96.4909 23.232V36H89.0029V0.383998H96.4909V17.328L94.8109 15.168C95.7389 13.44 97.0669 12.112 98.7949 11.184C100.523 10.256 102.491 9.792 104.699 9.792Z" fill="#ED145B"/>
<path d="M122.718 36V2.4H130.494V29.664H147.342V36H122.718ZM163.835 36.384C160.891 36.384 158.299 35.808 156.059 34.656C153.851 33.504 152.139 31.936 150.923 29.952C149.707 27.936 149.099 25.648 149.099 23.088C149.099 20.496 149.691 18.208 150.875 16.224C152.091 14.208 153.739 12.64 155.819 11.52C157.899 10.368 160.251 9.792 162.875 9.792C165.403 9.792 167.675 10.336 169.691 11.424C171.739 12.48 173.355 14.016 174.539 16.032C175.723 18.016 176.315 20.4 176.315 23.184C176.315 23.472 176.299 23.808 176.267 24.192C176.235 24.544 176.203 24.88 176.171 25.2H155.195V20.832H172.234L169.355 22.128C169.355 20.784 169.083 19.616 168.539 18.624C167.995 17.632 167.243 16.864 166.283 16.32C165.323 15.744 164.203 15.456 162.923 15.456C161.643 15.456 160.507 15.744 159.515 16.32C158.555 16.864 157.803 17.648 157.259 18.672C156.715 19.664 156.443 20.848 156.443 22.224V23.376C156.443 24.784 156.747 26.032 157.355 27.12C157.995 28.176 158.875 28.992 159.995 29.568C161.147 30.112 162.491 30.384 164.027 30.384C165.403 30.384 166.603 30.176 167.627 29.76C168.683 29.344 169.643 28.72 170.507 27.888L174.491 32.208C173.307 33.552 171.819 34.592 170.027 35.328C168.235 36.032 166.171 36.384 163.835 36.384ZM196.437 36V30.96L195.957 29.856V20.832C195.957 19.232 195.461 17.984 194.469 17.088C193.509 16.192 192.021 15.744 190.005 15.744C188.629 15.744 187.269 15.968 185.925 16.416C184.613 16.832 183.493 17.408 182.565 18.144L179.877 12.912C181.285 11.92 182.981 11.152 184.965 10.608C186.949 10.064 188.965 9.792 191.013 9.792C194.949 9.792 198.005 10.72 200.181 12.576C202.357 14.432 203.445 17.328 203.445 21.264V36H196.437ZM188.565 36.384C186.549 36.384 184.821 36.048 183.381 35.376C181.941 34.672 180.837 33.728 180.069 32.544C179.301 31.36 178.917 30.032 178.917 28.56C178.917 27.024 179.285 25.68 180.021 24.528C180.789 23.376 181.989 22.48 183.621 21.84C185.253 21.168 187.381 20.832 190.005 20.832H196.869V25.2H190.821C189.061 25.2 187.845 25.488 187.173 26.064C186.533 26.64 186.213 27.36 186.213 28.224C186.213 29.184 186.581 29.952 187.317 30.528C188.085 31.072 189.125 31.344 190.437 31.344C191.685 31.344 192.805 31.056 193.797 30.48C194.789 29.872 195.509 28.992 195.957 27.84L197.109 31.296C196.565 32.96 195.573 34.224 194.133 35.088C192.693 35.952 190.837 36.384 188.565 36.384ZM210.222 36V10.176H217.374V17.472L216.366 15.36C217.134 13.536 218.366 12.16 220.062 11.232C221.758 10.272 223.822 9.792 226.254 9.792V16.704C225.934 16.672 225.646 16.656 225.39 16.656C225.134 16.624 224.862 16.608 224.574 16.608C222.526 16.608 220.862 17.2 219.582 18.384C218.334 19.536 217.71 21.344 217.71 23.808V36H210.222ZM246.449 9.792C248.497 9.792 250.321 10.208 251.921 11.04C253.553 11.84 254.833 13.088 255.761 14.784C256.689 16.448 257.153 18.592 257.153 21.216V36H249.665V22.368C249.665 20.288 249.201 18.752 248.273 17.76C247.377 16.768 246.097 16.272 244.433 16.272C243.249 16.272 242.177 16.528 241.217 17.04C240.289 17.52 239.553 18.272 239.009 19.296C238.497 20.32 238.241 21.632 238.241 23.232V36H230.753V10.176H237.905V17.328L236.561 15.168C237.489 13.44 238.817 12.112 240.545 11.184C242.273 10.256 244.241 9.792 246.449 9.792Z" fill="white"/>
</svg>
